<svg width="140.000000" height="23.000000" viewBox="0 0 140 23" fill="none" xmlns="http://www.w3.org/2000/svg" xmlns:xlink="http://www.w3.org/1999/xlink">
	<desc>
			Created with Pixso.
	</desc>
	<defs>
		<clipPath id="clip3642_1568">
			<rect id="Frame" rx="-0.500000" width="138.999985" height="21.868523" transform="translate(0.500000 0.500000)" fill="white" fill-opacity="0"/>
		</clipPath>
	</defs>
	<rect id="Frame" rx="-0.500000" width="138.999985" height="21.868523" transform="translate(0.500000 0.500000)" fill="#FFFFFF" fill-opacity="0"/>
	<g clip-path="url(#clip3642_1568)">
		<path id="Vector" d="M20.13 1.24L32.07 1.24C36.24 2.42 35.16 7.85 32.05 8.2L22.13 8.2L22.13 12.01L20.12 12.01L20.12 1.24L20.13 1.24Z" fill="#101426" fill-opacity="1.000000" fill-rule="evenodd"/>
		<path id="Vector" d="M32.07 1.24C36.24 2.42 35.16 7.85 32.05 8.2L22.13 8.2L22.13 12.01L20.12 12.01L20.12 1.24L20.13 1.24L32.07 1.24Z" stroke="#101426" stroke-opacity="1.000000" stroke-width="0.216000"/>
		<path id="Vector" d="M22.22 3.31L31.57 3.31C32.94 3.87 33.08 5.37 31.57 6.13L22.22 6.13L22.22 3.31Z" fill="#FFFFFF" fill-opacity="1.000000" fill-rule="evenodd"/>
		<path id="Vector" d="M31.57 3.31C32.94 3.87 33.08 5.37 31.57 6.13L22.22 6.13L22.22 3.31L31.57 3.31Z" stroke="#101426" stroke-opacity="1.000000" stroke-width="0.216000"/>
		<path id="Vector" d="M57.89 1.24L70.42 1.24C73.34 1.64 74.43 6.69 70.66 8.29L73.59 12.1L70.92 12.1L67.95 8.53L59.97 8.53L59.97 12.1L57.89 12.1L57.89 1.24Z" fill="#101426" fill-opacity="1.000000" fill-rule="evenodd"/>
		<path id="Vector" d="M70.42 1.24C73.34 1.64 74.43 6.69 70.66 8.29L73.59 12.1L70.92 12.1L67.95 8.53L59.97 8.53L59.97 12.1L57.89 12.1L57.89 1.24L70.42 1.24Z" stroke="#101426" stroke-opacity="1.000000" stroke-width="0.216000"/>
		<path id="Vector" d="M59.97 3.31L69.62 3.31C70.67 3.56 71.5 5.43 69.62 6.23L59.97 6.23L59.97 3.31Z" fill="#FFFFFF" fill-opacity="1.000000" fill-rule="evenodd"/>
		<path id="Vector" d="M69.62 3.31C70.67 3.56 71.5 5.43 69.62 6.23L59.97 6.23L59.97 3.31L69.62 3.31Z" stroke="#101426" stroke-opacity="1.000000" stroke-width="0.216000"/>
		<path id="Vector" d="M75.92 1.33L89.71 1.33L89.71 3.24L83.78 3.24L83.78 12.02L81.86 12.02L81.86 3.24L75.92 3.24L75.92 1.33Z" fill="#101426" fill-opacity="1.000000" fill-rule="evenodd"/>
		<path id="Vector" d="M89.71 1.33L89.71 3.24L83.78 3.24L83.78 12.02L81.86 12.02L81.86 3.24L75.92 3.24L75.92 1.33L89.71 1.33Z" stroke="#101426" stroke-opacity="1.000000" stroke-width="0.216000"/>
		<path id="Vector" d="M92.38 12.1L94.47 12.1L94.47 7.96L104.83 7.96L104.83 12.1L106.91 12.1L106.91 4.98C106.45 3.09 105.5 1.68 102.9 1.17L96.47 1.17C94.53 1.29 92.71 3.06 92.38 4.98L92.38 12.1L92.38 12.1Z" fill="#101426" fill-opacity="1.000000" fill-rule="evenodd"/>
		<path id="Vector" d="M94.47 12.1L94.47 7.96L104.83 7.96L104.83 12.1L106.91 12.1L106.91 4.98C106.45 3.09 105.5 1.68 102.9 1.17L96.47 1.17C94.53 1.29 92.71 3.06 92.38 4.98L92.38 12.1L92.38 12.1L94.47 12.1Z" stroke="#101426" stroke-opacity="1.000000" stroke-width="0.216000"/>
		<path id="Vector" d="M94.47 5.89L104.83 5.89C104.8 3.8 103.21 3.36 102.72 3.36L96.6 3.36C95.86 3.36 94.57 4.11 94.47 5.89Z" fill="#FFFFFF" fill-opacity="1.000000" fill-rule="evenodd"/>
		<path id="Vector" d="M104.83 5.89C104.8 3.8 103.21 3.36 102.72 3.36L96.6 3.36C95.86 3.36 94.57 4.11 94.47 5.89L104.83 5.89Z" stroke="#101426" stroke-opacity="1.000000" stroke-width="0.216000"/>
		<path id="Vector" d="M123.54 10.04L114.1 10.04C112.78 9.99 111.99 9.22 111.84 7.81L111.68 1.24L109.51 1.24L109.51 8.13C109.58 10.6 111.18 11.8 113.1 12.1L123.54 12.1L123.54 10.04Z" fill="#101426" fill-opacity="1.000000" fill-rule="evenodd"/>
		<path id="Vector" d="M114.1 10.04C112.78 9.99 111.99 9.22 111.84 7.81L111.68 1.24L109.51 1.24L109.51 8.13C109.58 10.6 111.18 11.8 113.1 12.1L123.54 12.1L123.54 10.04L114.1 10.04Z" stroke="#101426" stroke-opacity="1.000000" stroke-width="0.216000"/>
		<path id="Vector" d="M37.82 22.79L37.82 18.34L41.14 18.34L41.14 19.09L38.72 19.09L38.72 20.08L40.97 20.08L40.97 20.83L38.72 20.83L38.72 22.04L41.22 22.04L41.22 22.79L37.82 22.79ZM49.71 22.79L49.71 18.34L50.59 18.34L52.43 21.31L52.43 18.34L53.27 18.34L53.27 22.79L52.36 22.79L50.55 19.88L50.55 22.78L49.71 22.78L49.71 22.79ZM61.94 22.79L61.94 18.34L65.26 18.34L65.26 19.09L62.84 19.09L62.84 20.08L65.09 20.08L65.09 20.83L62.84 20.83L62.84 22.04L65.34 22.04L65.34 22.79L61.94 22.79ZM73.82 22.79L73.82 18.34L75.73 18.34C76.2 18.34 76.55 18.38 76.77 18.46C77 18.53 77.17 18.67 77.29 18.88C77.42 19.08 77.49 19.32 77.49 19.58C77.49 19.91 77.39 20.19 77.19 20.41C77 20.63 76.7 20.76 76.31 20.82C76.5 20.93 76.66 21.06 76.79 21.19C76.92 21.33 77.09 21.57 77.3 21.91L77.85 22.78L76.77 22.78L76.11 21.81C75.88 21.46 75.72 21.24 75.63 21.16C75.55 21.06 75.45 21.01 75.36 20.97C75.27 20.94 75.11 20.92 74.9 20.92L74.72 20.92L74.72 22.78L73.82 22.78L73.82 22.79ZM74.73 20.22L75.4 20.22C75.84 20.22 76.11 20.2 76.22 20.17C76.33 20.14 76.42 20.07 76.48 19.98C76.54 19.89 76.57 19.78 76.57 19.65C76.57 19.5 76.53 19.38 76.45 19.29C76.37 19.2 76.25 19.14 76.11 19.11C76.03 19.11 75.82 19.1 75.45 19.1L74.74 19.1L74.74 20.22L74.73 20.22ZM88.14 21.15L88.14 20.4L90.09 20.4L90.09 22.17C89.9 22.36 89.62 22.52 89.26 22.65C88.9 22.79 88.54 22.86 88.17 22.86C87.7 22.86 87.29 22.76 86.94 22.57C86.6 22.37 86.33 22.1 86.16 21.73C85.98 21.37 85.9 20.97 85.9 20.55C85.9 20.09 86 19.67 86.19 19.32C86.38 18.95 86.67 18.68 87.05 18.49C87.34 18.34 87.69 18.27 88.12 18.27C88.67 18.27 89.12 18.39 89.42 18.62C89.74 18.84 89.93 19.16 90.03 19.58L89.12 19.75C89.06 19.53 88.94 19.36 88.77 19.23C88.6 19.11 88.37 19.05 88.11 19.05C87.72 19.05 87.4 19.17 87.17 19.42C86.94 19.67 86.82 20.03 86.82 20.52C86.82 21.05 86.94 21.44 87.17 21.72C87.41 21.98 87.72 22.11 88.1 22.11C88.29 22.11 88.49 22.08 88.67 22C88.86 21.93 89.03 21.84 89.17 21.73L89.17 21.17L88.14 21.17L88.14 21.15ZM99.81 22.79L99.81 20.91L98.17 18.34L99.23 18.34L100.29 20.09L101.32 18.34L102.37 18.34L100.72 20.92L100.72 22.79L99.81 22.79Z" fill="#101426" fill-opacity="1.000000" fill-rule="evenodd"/>
		<path id="Vector" d="M53.97 3.31C54.87 3.87 55.44 4.88 55.54 6.42L55.56 9.95C55.37 11.95 54.1 13.44 52.17 13.76L41.84 13.76C40.02 13.36 38.51 11.81 38.51 10.16C38.51 10.16 39.16 10.8 39.91 10.93L50.57 10.95C51.85 10.8 53.54 10.04 53.97 7.58C54.02 7.34 53.96 3.31 53.97 3.31Z" fill="#00C2FF" fill-opacity="1.000000" fill-rule="evenodd"/>
		<path id="Vector" d="M50.57 10.95C52.52 10.86 53.43 9.15 53.43 9.15C53.36 10.37 52.91 11.3 51.37 11.54L42.58 11.54C42.18 11.48 41.66 11.24 41.43 10.96L50.57 10.95Z" fill="#FFFFFF" fill-opacity="1.000000" fill-rule="evenodd"/>
		<path id="Vector" d="M40.15 0L50.52 0C52.79 0.11 53.83 2 54 3.6C54 3.6 54.02 6.86 54.02 7.13C54 8.61 52.98 10.72 50.58 10.94L39.98 10.94C38.32 10.68 36.99 8.39 36.92 7.15C36.92 7.13 36.92 3.65 36.92 3.65C37.01 2.17 38.58 0.14 40.15 0Z" fill="#101426" fill-opacity="1.000000" fill-rule="evenodd"/>
		<path id="Vector" d="M50.52 0C52.79 0.11 53.83 2 54 3.6C54 3.6 54.02 6.86 54.02 7.13C54 8.61 52.98 10.72 50.58 10.94L39.98 10.94C38.32 10.68 36.99 8.39 36.92 7.15C36.92 7.13 36.92 3.65 36.92 3.65C37.01 2.17 38.58 0.14 40.15 0L50.52 0Z" stroke="#101426" stroke-opacity="1.000000" stroke-width="0.216000"/>
		<path id="Vector" d="M41.04 2.08L50.12 2.07C50.77 2.14 51.5 2.73 51.81 3.69C51.85 3.82 51.89 6.56 51.73 7.09C51.51 7.77 51.09 8.46 50.13 8.7L41.04 8.7C40.09 8.57 39.47 7.88 39.21 6.88C39.13 6.52 39.15 4.16 39.23 3.83C39.47 2.87 40.14 2.17 41.04 2.08Z" fill="#FFFFFF" fill-opacity="1.000000" fill-rule="evenodd"/>
		<path id="Vector" d="M51.35 2.82L42.31 2.82C40.78 2.97 39.5 4.07 39.16 4.78L39.18 6.59C39.28 7.6 39.83 8.25 40.66 8.62L40.7 6.86C40.79 5.53 41.79 4.94 42.93 4.9L51.84 4.94C51.84 4.94 51.84 4.06 51.81 3.79C51.79 3.47 51.52 2.97 51.35 2.82Z" fill="#00C2FF" fill-opacity="1.000000" fill-rule="evenodd"/>
	</g>
	<path id="Vector" d="M140 15.17C140 15.81 108.66 16.33 70 16.33C31.34 16.33 0 15.81 0 15.17C0 14.53 31.34 14.01 70 14.01C108.66 14.01 140 14.53 140 15.17Z" fill="#101426" fill-opacity="1.000000" fill-rule="evenodd"/>
</svg>
