<svg width="16" height="20" viewBox="0 0 16 20" fill="none" xmlns="http://www.w3.org/2000/svg">
<path fill-rule="evenodd" clip-rule="evenodd" d="M7.77778 0C3.48931 0 0 3.554 0 7.923C0 13.397 6.85319 19.502 7.14486 19.759C7.32764 19.92 7.55222 20 7.77778 20C8.00333 20 8.22792 19.92 8.4107 19.759C8.70236 19.502 15.5556 13.397 15.5556 7.923C15.5556 3.554 12.0662 0 7.77778 0Z" fill="#090628"/>
<path d="M9.15047 3.41075C8.10742 3.3075 7.05421 3.3075 6.01118 3.41075L4.93107 3.51767C4.7713 3.53348 4.64637 3.64486 4.63216 3.78415L4.54913 4.59774C4.40955 5.96565 4.40955 7.34162 4.54913 8.70953L4.63216 9.52313C4.64766 9.67503 4.79399 9.7915 4.96935 9.7915H6.37181V14.15C6.37181 14.2751 6.46267 14.3865 6.59842 14.4279C6.7341 14.4692 6.88508 14.4315 6.97486 14.3338L7.23938 14.0457C8.81648 12.3285 10.0723 10.4057 10.9606 8.34824L11.0895 8.0496C11.1285 7.95916 11.1141 7.85783 11.0509 7.77846C10.9876 7.69909 10.8836 7.65171 10.7726 7.65171H8.93571L10.5102 3.91138C10.5459 3.8266 10.5348 3.73228 10.4803 3.65547C10.4258 3.57867 10.3337 3.52787 10.2306 3.51767L9.15047 3.41075Z" fill="white"/>
</svg>
