<svg width="20" height="19" viewBox="0 0 20 19" fill="none" xmlns="http://www.w3.org/2000/svg">
<path fill-rule="evenodd" clip-rule="evenodd" d="M17 18.5H4C2.067 18.5 0.5 16.933 0.5 15V1.94321C0.5 0.875661 1.55584 0.198861 2.4849 0.521421C2.61762 0.567491 2.74776 0.633971 2.87186 0.722611L3.0469 0.847651C3.91493 1.46766 5.08891 1.46492 5.95938 0.843161C7.17632 -0.0260894 8.8237 -0.0260894 10.0406 0.843161C10.9111 1.46492 12.0851 1.46766 12.9531 0.847651L13.1281 0.722611C14.1209 0.0134707 15.5 0.723151 15.5 1.94321V9.5H19C19.4142 9.5 19.75 9.8358 19.75 10.25V15.75C19.75 17.2688 18.5188 18.5 17 18.5ZM15.75 11V15.75C15.75 16.4404 16.3096 17 17 17C17.6904 17 18.25 16.4404 18.25 15.75V11H15.75ZM11.5 6.75002C11.5 6.3358 11.1642 6.00002 10.75 6.00002H4.75C4.33579 6.00002 4 6.3358 4 6.75002C4 7.1642 4.33579 7.5 4.75 7.5H10.75C11.1642 7.5 11.5 7.1642 11.5 6.75002ZM10.5 9.75C10.5 9.3358 10.1642 9 9.75 9H4.75C4.33579 9 4 9.3358 4 9.75C4 10.1642 4.33579 10.5 4.75 10.5H9.75C10.1642 10.5 10.5 10.1642 10.5 9.75ZM10.75 12C11.1642 12 11.5 12.3358 11.5 12.75C11.5 13.1642 11.1642 13.5 10.75 13.5H4.75C4.33579 13.5 4 13.1642 4 12.75C4 12.3358 4.33579 12 4.75 12H10.75Z" fill="#090628"/>
</svg>
