<svg width="21" height="18" viewBox="0 0 21 18" fill="none" xmlns="http://www.w3.org/2000/svg">
<path fill-rule="evenodd" clip-rule="evenodd" d="M20.0102 7.1713L20.0128 10.7942C19.9873 11.1393 19.9544 11.484 19.9141 11.8281C19.8468 12.4035 19.3791 12.8677 18.7917 12.9333C16.9519 13.139 15.0481 13.139 13.2084 12.9333C12.621 12.8677 12.1532 12.4035 12.0859 11.8281C11.8661 9.9491 11.8661 8.0509 12.0859 6.17189C12.1532 5.59648 12.621 5.13234 13.2084 5.06669C15.0481 4.86107 16.9519 4.86107 18.7917 5.06669C19.3791 5.13234 19.8468 5.59648 19.9141 6.17189C19.953 6.5045 19.9851 6.8377 20.0102 7.1713ZM16 7.5C15.1716 7.5 14.5 8.1716 14.5 9C14.5 9.8284 15.1716 10.5 16 10.5C16.8284 10.5 17.5 9.8284 17.5 9C17.5 8.1716 16.8284 7.5 16 7.5Z" fill="black"/>
<path d="M19.4036 3.03973C19.5591 3.30899 19.2673 3.61051 18.9583 3.57597C17.0078 3.35798 14.9922 3.35798 13.0417 3.57597C11.7724 3.71784 10.7458 4.71738 10.5961 5.99764C10.3628 7.9924 10.3628 10.0076 10.5961 12.0024C10.7458 13.2826 11.7724 14.2822 13.0417 14.4241C14.9922 14.642 17.0078 14.642 18.9583 14.4241C19.2693 14.3893 19.5636 14.6929 19.4066 14.9637C18.628 16.3065 17.2399 17.2437 15.6268 17.4134L14.975 17.482C11.6641 17.8304 8.32468 17.8074 5.01893 17.4135L4.58698 17.362C2.80486 17.1497 1.39281 15.7573 1.15544 13.9784C0.714543 10.6741 0.714543 7.3259 1.15544 4.02166C1.39281 2.2427 2.80486 0.850338 4.58698 0.637978L5.01892 0.586508C8.32467 0.192578 11.6641 0.169608 14.975 0.518008L15.6268 0.586608C17.2412 0.756488 18.6271 1.6951 19.4036 3.03973Z" fill="black"/>
</svg>
